<mxfile host="app.diagrams.net" modified="2023-12-05T04:09:37.827Z" agent="Mozilla/5.0 (Windows NT 10.0; Win64; x64) AppleWebKit/537.36 (KHTML, like Gecko) Chrome/119.0.0.0 Safari/537.36" etag="__QsCI24FjxQdBdKQHBe" version="22.1.5" type="device">
  <diagram id="C5RBs43oDa-KdzZeNtuy" name="Page-1">
    <mxGraphModel dx="1050" dy="630" grid="0" gridSize="10" guides="1" tooltips="1" connect="1" arrows="1" fold="1" page="0" pageScale="1" pageWidth="1169" pageHeight="827" background="none" math="0" shadow="0">
      <root>
        <mxCell id="WIyWlLk6GJQsqaUBKTNV-0" />
        <mxCell id="WIyWlLk6GJQsqaUBKTNV-1" parent="WIyWlLk6GJQsqaUBKTNV-0" />
        <mxCell id="DvEdpbcLVtmOdHuHlk22-88" value="" style="edgeStyle=orthogonalEdgeStyle;rounded=0;orthogonalLoop=1;jettySize=auto;html=1;" parent="WIyWlLk6GJQsqaUBKTNV-1" source="WIyWlLk6GJQsqaUBKTNV-3" target="GtnpbiUyTME8SAcriD9--0" edge="1">
          <mxGeometry relative="1" as="geometry" />
        </mxCell>
        <mxCell id="WIyWlLk6GJQsqaUBKTNV-3" value="Start" style="rounded=1;whiteSpace=wrap;html=1;fontSize=12;glass=0;strokeWidth=1;shadow=0;fillColor=#d5e8d4;strokeColor=#82b366;" parent="WIyWlLk6GJQsqaUBKTNV-1" vertex="1">
          <mxGeometry x="70" y="160" width="210" height="60" as="geometry" />
        </mxCell>
        <mxCell id="GtnpbiUyTME8SAcriD9--3" value="" style="edgeStyle=orthogonalEdgeStyle;rounded=0;orthogonalLoop=1;jettySize=auto;html=1;" parent="WIyWlLk6GJQsqaUBKTNV-1" source="GtnpbiUyTME8SAcriD9--0" target="GtnpbiUyTME8SAcriD9--1" edge="1">
          <mxGeometry relative="1" as="geometry" />
        </mxCell>
        <mxCell id="GtnpbiUyTME8SAcriD9--0" value="Initialize GLUT" style="rounded=0;whiteSpace=wrap;html=1;fillColor=#fff2cc;strokeColor=#d6b656;" parent="WIyWlLk6GJQsqaUBKTNV-1" vertex="1">
          <mxGeometry x="70" y="260" width="210" height="60" as="geometry" />
        </mxCell>
        <mxCell id="GtnpbiUyTME8SAcriD9--4" value="" style="edgeStyle=orthogonalEdgeStyle;rounded=0;orthogonalLoop=1;jettySize=auto;html=1;" parent="WIyWlLk6GJQsqaUBKTNV-1" source="GtnpbiUyTME8SAcriD9--1" target="GtnpbiUyTME8SAcriD9--2" edge="1">
          <mxGeometry relative="1" as="geometry" />
        </mxCell>
        <mxCell id="GtnpbiUyTME8SAcriD9--1" value="Set window position and size" style="rounded=0;whiteSpace=wrap;html=1;fillColor=#fff2cc;strokeColor=#d6b656;" parent="WIyWlLk6GJQsqaUBKTNV-1" vertex="1">
          <mxGeometry x="70" y="354" width="210" height="60" as="geometry" />
        </mxCell>
        <mxCell id="GtnpbiUyTME8SAcriD9--6" value="" style="edgeStyle=orthogonalEdgeStyle;rounded=0;orthogonalLoop=1;jettySize=auto;html=1;" parent="WIyWlLk6GJQsqaUBKTNV-1" source="GtnpbiUyTME8SAcriD9--2" target="GtnpbiUyTME8SAcriD9--5" edge="1">
          <mxGeometry relative="1" as="geometry" />
        </mxCell>
        <mxCell id="GtnpbiUyTME8SAcriD9--2" value="Set display mode" style="rounded=0;whiteSpace=wrap;html=1;fillColor=#fff2cc;strokeColor=#d6b656;" parent="WIyWlLk6GJQsqaUBKTNV-1" vertex="1">
          <mxGeometry x="70" y="455" width="210" height="60" as="geometry" />
        </mxCell>
        <mxCell id="GtnpbiUyTME8SAcriD9--8" value="" style="edgeStyle=orthogonalEdgeStyle;rounded=0;orthogonalLoop=1;jettySize=auto;html=1;" parent="WIyWlLk6GJQsqaUBKTNV-1" source="GtnpbiUyTME8SAcriD9--5" target="GtnpbiUyTME8SAcriD9--7" edge="1">
          <mxGeometry relative="1" as="geometry" />
        </mxCell>
        <mxCell id="GtnpbiUyTME8SAcriD9--5" value="Create &quot;CS155 Final Project&quot; window" style="rounded=0;whiteSpace=wrap;html=1;fillColor=#fff2cc;strokeColor=#d6b656;" parent="WIyWlLk6GJQsqaUBKTNV-1" vertex="1">
          <mxGeometry x="70" y="550" width="210" height="60" as="geometry" />
        </mxCell>
        <mxCell id="GtnpbiUyTME8SAcriD9--10" value="" style="edgeStyle=orthogonalEdgeStyle;rounded=0;orthogonalLoop=1;jettySize=auto;html=1;" parent="WIyWlLk6GJQsqaUBKTNV-1" source="GtnpbiUyTME8SAcriD9--7" target="GtnpbiUyTME8SAcriD9--9" edge="1">
          <mxGeometry relative="1" as="geometry" />
        </mxCell>
        <mxCell id="GtnpbiUyTME8SAcriD9--27" style="edgeStyle=orthogonalEdgeStyle;rounded=0;orthogonalLoop=1;jettySize=auto;html=1;exitX=1;exitY=0.5;exitDx=0;exitDy=0;" parent="WIyWlLk6GJQsqaUBKTNV-1" source="GtnpbiUyTME8SAcriD9--7" target="GtnpbiUyTME8SAcriD9--23" edge="1">
          <mxGeometry relative="1" as="geometry">
            <Array as="points">
              <mxPoint x="320" y="680" />
              <mxPoint x="320" y="545" />
            </Array>
          </mxGeometry>
        </mxCell>
        <mxCell id="GtnpbiUyTME8SAcriD9--28" style="edgeStyle=orthogonalEdgeStyle;rounded=0;orthogonalLoop=1;jettySize=auto;html=1;exitX=1;exitY=0.5;exitDx=0;exitDy=0;entryX=0;entryY=0.5;entryDx=0;entryDy=0;" parent="WIyWlLk6GJQsqaUBKTNV-1" source="GtnpbiUyTME8SAcriD9--7" target="GtnpbiUyTME8SAcriD9--24" edge="1">
          <mxGeometry relative="1" as="geometry" />
        </mxCell>
        <mxCell id="GtnpbiUyTME8SAcriD9--29" style="edgeStyle=orthogonalEdgeStyle;rounded=0;orthogonalLoop=1;jettySize=auto;html=1;exitX=1;exitY=0.5;exitDx=0;exitDy=0;entryX=0;entryY=0.5;entryDx=0;entryDy=0;" parent="WIyWlLk6GJQsqaUBKTNV-1" source="GtnpbiUyTME8SAcriD9--7" target="GtnpbiUyTME8SAcriD9--22" edge="1">
          <mxGeometry relative="1" as="geometry" />
        </mxCell>
        <mxCell id="GtnpbiUyTME8SAcriD9--30" style="edgeStyle=orthogonalEdgeStyle;rounded=0;orthogonalLoop=1;jettySize=auto;html=1;exitX=1;exitY=0.5;exitDx=0;exitDy=0;entryX=0;entryY=0.5;entryDx=0;entryDy=0;" parent="WIyWlLk6GJQsqaUBKTNV-1" source="GtnpbiUyTME8SAcriD9--7" target="GtnpbiUyTME8SAcriD9--25" edge="1">
          <mxGeometry relative="1" as="geometry" />
        </mxCell>
        <mxCell id="GtnpbiUyTME8SAcriD9--7" value="Register callbacks" style="rounded=0;whiteSpace=wrap;html=1;fillColor=#e1d5e7;strokeColor=#9673a6;" parent="WIyWlLk6GJQsqaUBKTNV-1" vertex="1">
          <mxGeometry x="70" y="650" width="210" height="100" as="geometry" />
        </mxCell>
        <mxCell id="GtnpbiUyTME8SAcriD9--12" value="" style="edgeStyle=orthogonalEdgeStyle;rounded=0;orthogonalLoop=1;jettySize=auto;html=1;" parent="WIyWlLk6GJQsqaUBKTNV-1" source="GtnpbiUyTME8SAcriD9--9" target="GtnpbiUyTME8SAcriD9--11" edge="1">
          <mxGeometry relative="1" as="geometry" />
        </mxCell>
        <mxCell id="GtnpbiUyTME8SAcriD9--9" value="Set clear color" style="rounded=0;whiteSpace=wrap;html=1;fillColor=#fff2cc;strokeColor=#d6b656;" parent="WIyWlLk6GJQsqaUBKTNV-1" vertex="1">
          <mxGeometry x="70" y="790" width="210" height="60" as="geometry" />
        </mxCell>
        <mxCell id="GtnpbiUyTME8SAcriD9--16" value="" style="edgeStyle=orthogonalEdgeStyle;rounded=0;orthogonalLoop=1;jettySize=auto;html=1;" parent="WIyWlLk6GJQsqaUBKTNV-1" source="GtnpbiUyTME8SAcriD9--11" target="GtnpbiUyTME8SAcriD9--13" edge="1">
          <mxGeometry relative="1" as="geometry" />
        </mxCell>
        <mxCell id="GtnpbiUyTME8SAcriD9--11" value="Enable face culling, depth testing, &lt;br&gt;and lighting" style="rounded=0;whiteSpace=wrap;html=1;fillColor=#fff2cc;strokeColor=#d6b656;" parent="WIyWlLk6GJQsqaUBKTNV-1" vertex="1">
          <mxGeometry x="70" y="900" width="210" height="60" as="geometry" />
        </mxCell>
        <mxCell id="GtnpbiUyTME8SAcriD9--15" value="" style="edgeStyle=orthogonalEdgeStyle;rounded=0;orthogonalLoop=1;jettySize=auto;html=1;" parent="WIyWlLk6GJQsqaUBKTNV-1" source="GtnpbiUyTME8SAcriD9--13" target="GtnpbiUyTME8SAcriD9--14" edge="1">
          <mxGeometry relative="1" as="geometry" />
        </mxCell>
        <mxCell id="GtnpbiUyTME8SAcriD9--13" value="Set up lighting and material &lt;br&gt;properties for lighting" style="rounded=0;whiteSpace=wrap;html=1;fillColor=#fff2cc;strokeColor=#d6b656;" parent="WIyWlLk6GJQsqaUBKTNV-1" vertex="1">
          <mxGeometry x="70" y="1020" width="210" height="60" as="geometry" />
        </mxCell>
        <mxCell id="GtnpbiUyTME8SAcriD9--18" value="" style="edgeStyle=orthogonalEdgeStyle;rounded=0;orthogonalLoop=1;jettySize=auto;html=1;" parent="WIyWlLk6GJQsqaUBKTNV-1" source="GtnpbiUyTME8SAcriD9--14" target="GtnpbiUyTME8SAcriD9--17" edge="1">
          <mxGeometry relative="1" as="geometry" />
        </mxCell>
        <mxCell id="GtnpbiUyTME8SAcriD9--14" value="Enter the GLUT main loop" style="rounded=0;whiteSpace=wrap;html=1;fillColor=#fff2cc;strokeColor=#d6b656;" parent="WIyWlLk6GJQsqaUBKTNV-1" vertex="1">
          <mxGeometry x="70" y="1120" width="210" height="60" as="geometry" />
        </mxCell>
        <mxCell id="GtnpbiUyTME8SAcriD9--17" value="End" style="rounded=1;whiteSpace=wrap;html=1;fillColor=#d5e8d4;strokeColor=#82b366;" parent="WIyWlLk6GJQsqaUBKTNV-1" vertex="1">
          <mxGeometry x="70" y="1218.75" width="210" height="61.25" as="geometry" />
        </mxCell>
        <mxCell id="GtnpbiUyTME8SAcriD9--35" style="edgeStyle=orthogonalEdgeStyle;rounded=0;orthogonalLoop=1;jettySize=auto;html=1;entryX=0;entryY=0.5;entryDx=0;entryDy=0;" parent="WIyWlLk6GJQsqaUBKTNV-1" source="GtnpbiUyTME8SAcriD9--22" target="GtnpbiUyTME8SAcriD9--31" edge="1">
          <mxGeometry relative="1" as="geometry">
            <Array as="points">
              <mxPoint x="560" y="435" />
              <mxPoint x="560" y="295" />
            </Array>
          </mxGeometry>
        </mxCell>
        <mxCell id="GtnpbiUyTME8SAcriD9--22" value="Window resize: glutReshapeFunc(resize)" style="rounded=1;whiteSpace=wrap;html=1;fillColor=#e1d5e7;strokeColor=#9673a6;" parent="WIyWlLk6GJQsqaUBKTNV-1" vertex="1">
          <mxGeometry x="360" y="410" width="170" height="80" as="geometry" />
        </mxCell>
        <mxCell id="GtnpbiUyTME8SAcriD9--49" style="edgeStyle=orthogonalEdgeStyle;rounded=0;orthogonalLoop=1;jettySize=auto;html=1;entryX=0;entryY=0.5;entryDx=0;entryDy=0;" parent="WIyWlLk6GJQsqaUBKTNV-1" source="GtnpbiUyTME8SAcriD9--23" target="GtnpbiUyTME8SAcriD9--44" edge="1">
          <mxGeometry relative="1" as="geometry" />
        </mxCell>
        <mxCell id="GtnpbiUyTME8SAcriD9--23" value="Rendering: glutDisplayFunc(display)" style="rounded=1;whiteSpace=wrap;html=1;fillColor=#e1d5e7;strokeColor=#9673a6;" parent="WIyWlLk6GJQsqaUBKTNV-1" vertex="1">
          <mxGeometry x="360" y="520" width="170" height="80" as="geometry" />
        </mxCell>
        <mxCell id="GtnpbiUyTME8SAcriD9--78" value="" style="edgeStyle=orthogonalEdgeStyle;rounded=0;orthogonalLoop=1;jettySize=auto;html=1;" parent="WIyWlLk6GJQsqaUBKTNV-1" source="GtnpbiUyTME8SAcriD9--24" target="GtnpbiUyTME8SAcriD9--77" edge="1">
          <mxGeometry relative="1" as="geometry" />
        </mxCell>
        <mxCell id="GtnpbiUyTME8SAcriD9--24" value="Keyboard input: glutKeyboardFunc(key)" style="rounded=1;whiteSpace=wrap;html=1;fillColor=#e1d5e7;strokeColor=#9673a6;" parent="WIyWlLk6GJQsqaUBKTNV-1" vertex="1">
          <mxGeometry x="360" y="630" width="170" height="80" as="geometry" />
        </mxCell>
        <mxCell id="DvEdpbcLVtmOdHuHlk22-83" style="edgeStyle=orthogonalEdgeStyle;rounded=0;orthogonalLoop=1;jettySize=auto;html=1;entryX=0;entryY=0.5;entryDx=0;entryDy=0;" parent="WIyWlLk6GJQsqaUBKTNV-1" source="GtnpbiUyTME8SAcriD9--25" target="DvEdpbcLVtmOdHuHlk22-82" edge="1">
          <mxGeometry relative="1" as="geometry" />
        </mxCell>
        <mxCell id="GtnpbiUyTME8SAcriD9--25" value="Idle tasks: &lt;br&gt;glutIdleFunc(idle)" style="rounded=1;whiteSpace=wrap;html=1;fillColor=#e1d5e7;strokeColor=#9673a6;" parent="WIyWlLk6GJQsqaUBKTNV-1" vertex="1">
          <mxGeometry x="360" y="740" width="170" height="80" as="geometry" />
        </mxCell>
        <mxCell id="GtnpbiUyTME8SAcriD9--42" value="" style="edgeStyle=orthogonalEdgeStyle;rounded=0;orthogonalLoop=1;jettySize=auto;html=1;" parent="WIyWlLk6GJQsqaUBKTNV-1" source="GtnpbiUyTME8SAcriD9--31" target="GtnpbiUyTME8SAcriD9--41" edge="1">
          <mxGeometry relative="1" as="geometry" />
        </mxCell>
        <mxCell id="GtnpbiUyTME8SAcriD9--31" value="Read width &lt;br&gt;and height" style="shape=parallelogram;perimeter=parallelogramPerimeter;whiteSpace=wrap;html=1;fixedSize=1;fillColor=#f8cecc;strokeColor=#b85450;" parent="WIyWlLk6GJQsqaUBKTNV-1" vertex="1">
          <mxGeometry x="585" y="270" width="120" height="50" as="geometry" />
        </mxCell>
        <mxCell id="GtnpbiUyTME8SAcriD9--32" style="edgeStyle=orthogonalEdgeStyle;rounded=0;orthogonalLoop=1;jettySize=auto;html=1;exitX=0.5;exitY=1;exitDx=0;exitDy=0;" parent="WIyWlLk6GJQsqaUBKTNV-1" source="GtnpbiUyTME8SAcriD9--31" target="GtnpbiUyTME8SAcriD9--31" edge="1">
          <mxGeometry relative="1" as="geometry" />
        </mxCell>
        <mxCell id="GtnpbiUyTME8SAcriD9--37" value="" style="edgeStyle=orthogonalEdgeStyle;rounded=0;orthogonalLoop=1;jettySize=auto;html=1;" parent="WIyWlLk6GJQsqaUBKTNV-1" source="GtnpbiUyTME8SAcriD9--33" target="GtnpbiUyTME8SAcriD9--34" edge="1">
          <mxGeometry relative="1" as="geometry" />
        </mxCell>
        <mxCell id="GtnpbiUyTME8SAcriD9--33" value="Set the viewport" style="rounded=0;whiteSpace=wrap;html=1;fillColor=#fff2cc;strokeColor=#d6b656;" parent="WIyWlLk6GJQsqaUBKTNV-1" vertex="1">
          <mxGeometry x="940" y="270" width="120" height="50" as="geometry" />
        </mxCell>
        <mxCell id="GtnpbiUyTME8SAcriD9--39" value="" style="edgeStyle=orthogonalEdgeStyle;rounded=0;orthogonalLoop=1;jettySize=auto;html=1;" parent="WIyWlLk6GJQsqaUBKTNV-1" source="GtnpbiUyTME8SAcriD9--34" target="GtnpbiUyTME8SAcriD9--38" edge="1">
          <mxGeometry relative="1" as="geometry" />
        </mxCell>
        <mxCell id="GtnpbiUyTME8SAcriD9--34" value="Set the projection matrix, frustum, and modelview matrix" style="rounded=0;whiteSpace=wrap;html=1;fillColor=#fff2cc;strokeColor=#d6b656;" parent="WIyWlLk6GJQsqaUBKTNV-1" vertex="1">
          <mxGeometry x="1090" y="270" width="120" height="50" as="geometry" />
        </mxCell>
        <mxCell id="GtnpbiUyTME8SAcriD9--38" value="End" style="rounded=1;whiteSpace=wrap;html=1;fillColor=#e1d5e7;strokeColor=#9673a6;" parent="WIyWlLk6GJQsqaUBKTNV-1" vertex="1">
          <mxGeometry x="1240" y="270" width="110" height="50" as="geometry" />
        </mxCell>
        <mxCell id="GtnpbiUyTME8SAcriD9--43" value="" style="edgeStyle=orthogonalEdgeStyle;rounded=0;orthogonalLoop=1;jettySize=auto;html=1;" parent="WIyWlLk6GJQsqaUBKTNV-1" source="GtnpbiUyTME8SAcriD9--41" target="GtnpbiUyTME8SAcriD9--33" edge="1">
          <mxGeometry relative="1" as="geometry" />
        </mxCell>
        <mxCell id="GtnpbiUyTME8SAcriD9--41" value="Calculate the aspect ratio:&lt;br&gt;aspect ratio&amp;nbsp;← width / height" style="rounded=0;whiteSpace=wrap;html=1;fillColor=#fff2cc;strokeColor=#d6b656;" parent="WIyWlLk6GJQsqaUBKTNV-1" vertex="1">
          <mxGeometry x="730" y="270" width="170" height="50" as="geometry" />
        </mxCell>
        <mxCell id="GtnpbiUyTME8SAcriD9--50" value="" style="edgeStyle=orthogonalEdgeStyle;rounded=0;orthogonalLoop=1;jettySize=auto;html=1;" parent="WIyWlLk6GJQsqaUBKTNV-1" source="GtnpbiUyTME8SAcriD9--44" target="GtnpbiUyTME8SAcriD9--45" edge="1">
          <mxGeometry relative="1" as="geometry" />
        </mxCell>
        <mxCell id="GtnpbiUyTME8SAcriD9--44" value="Get the elapsed time (t)" style="rounded=0;whiteSpace=wrap;html=1;fillColor=#fff2cc;strokeColor=#d6b656;" parent="WIyWlLk6GJQsqaUBKTNV-1" vertex="1">
          <mxGeometry x="640" y="420" width="110" height="50" as="geometry" />
        </mxCell>
        <mxCell id="GtnpbiUyTME8SAcriD9--51" value="" style="edgeStyle=orthogonalEdgeStyle;rounded=0;orthogonalLoop=1;jettySize=auto;html=1;" parent="WIyWlLk6GJQsqaUBKTNV-1" source="GtnpbiUyTME8SAcriD9--45" target="GtnpbiUyTME8SAcriD9--46" edge="1">
          <mxGeometry relative="1" as="geometry" />
        </mxCell>
        <mxCell id="GtnpbiUyTME8SAcriD9--45" value="Calculate rotation angle:&lt;br&gt;a ←&amp;nbsp;t ×&amp;nbsp;90" style="rounded=0;whiteSpace=wrap;html=1;fillColor=#fff2cc;strokeColor=#d6b656;" parent="WIyWlLk6GJQsqaUBKTNV-1" vertex="1">
          <mxGeometry x="620" y="520" width="150" height="50" as="geometry" />
        </mxCell>
        <mxCell id="GtnpbiUyTME8SAcriD9--52" value="" style="edgeStyle=orthogonalEdgeStyle;rounded=0;orthogonalLoop=1;jettySize=auto;html=1;" parent="WIyWlLk6GJQsqaUBKTNV-1" source="GtnpbiUyTME8SAcriD9--46" target="GtnpbiUyTME8SAcriD9--47" edge="1">
          <mxGeometry relative="1" as="geometry" />
        </mxCell>
        <mxCell id="GtnpbiUyTME8SAcriD9--46" value="Clear the color and depth buffers" style="rounded=0;whiteSpace=wrap;html=1;fillColor=#fff2cc;strokeColor=#d6b656;" parent="WIyWlLk6GJQsqaUBKTNV-1" vertex="1">
          <mxGeometry x="810" y="520" width="120" height="50" as="geometry" />
        </mxCell>
        <mxCell id="GtnpbiUyTME8SAcriD9--53" value="" style="edgeStyle=orthogonalEdgeStyle;rounded=0;orthogonalLoop=1;jettySize=auto;html=1;" parent="WIyWlLk6GJQsqaUBKTNV-1" source="GtnpbiUyTME8SAcriD9--47" target="GtnpbiUyTME8SAcriD9--48" edge="1">
          <mxGeometry relative="1" as="geometry" />
        </mxCell>
        <mxCell id="GtnpbiUyTME8SAcriD9--47" value="Set up the camera" style="rounded=0;whiteSpace=wrap;html=1;fillColor=#fff2cc;strokeColor=#d6b656;" parent="WIyWlLk6GJQsqaUBKTNV-1" vertex="1">
          <mxGeometry x="815" y="420" width="110" height="50" as="geometry" />
        </mxCell>
        <mxCell id="GtnpbiUyTME8SAcriD9--56" value="" style="edgeStyle=orthogonalEdgeStyle;rounded=0;orthogonalLoop=1;jettySize=auto;html=1;" parent="WIyWlLk6GJQsqaUBKTNV-1" source="GtnpbiUyTME8SAcriD9--48" target="GtnpbiUyTME8SAcriD9--55" edge="1">
          <mxGeometry relative="1" as="geometry" />
        </mxCell>
        <mxCell id="GtnpbiUyTME8SAcriD9--48" value="Render the scene" style="rounded=0;whiteSpace=wrap;html=1;fillColor=#fff2cc;strokeColor=#d6b656;" parent="WIyWlLk6GJQsqaUBKTNV-1" vertex="1">
          <mxGeometry x="980" y="470" width="110" height="50" as="geometry" />
        </mxCell>
        <mxCell id="GtnpbiUyTME8SAcriD9--59" style="edgeStyle=orthogonalEdgeStyle;rounded=0;orthogonalLoop=1;jettySize=auto;html=1;entryX=0;entryY=0.5;entryDx=0;entryDy=0;" parent="WIyWlLk6GJQsqaUBKTNV-1" source="GtnpbiUyTME8SAcriD9--55" target="GtnpbiUyTME8SAcriD9--57" edge="1">
          <mxGeometry relative="1" as="geometry" />
        </mxCell>
        <mxCell id="GtnpbiUyTME8SAcriD9--55" value="START == true?" style="rhombus;whiteSpace=wrap;html=1;fillColor=#dae8fc;strokeColor=#6c8ebf;" parent="WIyWlLk6GJQsqaUBKTNV-1" vertex="1">
          <mxGeometry x="1130" y="462.5" width="170" height="65" as="geometry" />
        </mxCell>
        <mxCell id="GtnpbiUyTME8SAcriD9--69" value="" style="edgeStyle=orthogonalEdgeStyle;rounded=0;orthogonalLoop=1;jettySize=auto;html=1;" parent="WIyWlLk6GJQsqaUBKTNV-1" source="GtnpbiUyTME8SAcriD9--57" target="GtnpbiUyTME8SAcriD9--67" edge="1">
          <mxGeometry relative="1" as="geometry" />
        </mxCell>
        <mxCell id="GtnpbiUyTME8SAcriD9--57" value="Render scene elements &amp;amp; apply transformations" style="rounded=0;whiteSpace=wrap;html=1;fillColor=#fff2cc;strokeColor=#d6b656;" parent="WIyWlLk6GJQsqaUBKTNV-1" vertex="1">
          <mxGeometry x="1360" y="405" width="150" height="60" as="geometry" />
        </mxCell>
        <mxCell id="GtnpbiUyTME8SAcriD9--70" value="" style="edgeStyle=orthogonalEdgeStyle;rounded=0;orthogonalLoop=1;jettySize=auto;html=1;" parent="WIyWlLk6GJQsqaUBKTNV-1" source="GtnpbiUyTME8SAcriD9--58" target="GtnpbiUyTME8SAcriD9--68" edge="1">
          <mxGeometry relative="1" as="geometry" />
        </mxCell>
        <mxCell id="GtnpbiUyTME8SAcriD9--58" value="Render the rotating bird" style="rounded=0;whiteSpace=wrap;html=1;fillColor=#fff2cc;strokeColor=#d6b656;" parent="WIyWlLk6GJQsqaUBKTNV-1" vertex="1">
          <mxGeometry x="1360" y="520" width="150" height="60" as="geometry" />
        </mxCell>
        <mxCell id="GtnpbiUyTME8SAcriD9--60" style="edgeStyle=orthogonalEdgeStyle;rounded=0;orthogonalLoop=1;jettySize=auto;html=1;entryX=-0.003;entryY=0.625;entryDx=0;entryDy=0;entryPerimeter=0;" parent="WIyWlLk6GJQsqaUBKTNV-1" source="GtnpbiUyTME8SAcriD9--55" target="GtnpbiUyTME8SAcriD9--58" edge="1">
          <mxGeometry relative="1" as="geometry" />
        </mxCell>
        <mxCell id="GtnpbiUyTME8SAcriD9--63" value="False" style="text;strokeColor=none;align=center;fillColor=none;html=1;verticalAlign=middle;whiteSpace=wrap;rounded=0;rotation=-90;" parent="WIyWlLk6GJQsqaUBKTNV-1" vertex="1">
          <mxGeometry x="1290" y="520" width="60" height="20" as="geometry" />
        </mxCell>
        <mxCell id="GtnpbiUyTME8SAcriD9--64" value="True" style="text;strokeColor=none;align=center;fillColor=none;html=1;verticalAlign=middle;whiteSpace=wrap;rounded=0;rotation=-90;" parent="WIyWlLk6GJQsqaUBKTNV-1" vertex="1">
          <mxGeometry x="1295" y="455" width="50" height="20" as="geometry" />
        </mxCell>
        <mxCell id="GtnpbiUyTME8SAcriD9--73" style="edgeStyle=orthogonalEdgeStyle;rounded=0;orthogonalLoop=1;jettySize=auto;html=1;entryX=0;entryY=0.5;entryDx=0;entryDy=0;" parent="WIyWlLk6GJQsqaUBKTNV-1" source="GtnpbiUyTME8SAcriD9--67" target="GtnpbiUyTME8SAcriD9--72" edge="1">
          <mxGeometry relative="1" as="geometry" />
        </mxCell>
        <mxCell id="GtnpbiUyTME8SAcriD9--67" value="Render text for user instructions &amp;amp; time display" style="rounded=0;whiteSpace=wrap;html=1;fillColor=#fff2cc;strokeColor=#d6b656;" parent="WIyWlLk6GJQsqaUBKTNV-1" vertex="1">
          <mxGeometry x="1550" y="405" width="150" height="60" as="geometry" />
        </mxCell>
        <mxCell id="GtnpbiUyTME8SAcriD9--74" style="edgeStyle=orthogonalEdgeStyle;rounded=0;orthogonalLoop=1;jettySize=auto;html=1;entryX=0;entryY=0.5;entryDx=0;entryDy=0;" parent="WIyWlLk6GJQsqaUBKTNV-1" source="GtnpbiUyTME8SAcriD9--68" target="GtnpbiUyTME8SAcriD9--72" edge="1">
          <mxGeometry relative="1" as="geometry" />
        </mxCell>
        <mxCell id="GtnpbiUyTME8SAcriD9--68" value="Render text for &lt;br&gt;start menu" style="rounded=0;whiteSpace=wrap;html=1;fillColor=#fff2cc;strokeColor=#d6b656;" parent="WIyWlLk6GJQsqaUBKTNV-1" vertex="1">
          <mxGeometry x="1550" y="520" width="150" height="60" as="geometry" />
        </mxCell>
        <mxCell id="GtnpbiUyTME8SAcriD9--71" value="End" style="rounded=1;whiteSpace=wrap;html=1;fillColor=#e1d5e7;strokeColor=#9673a6;" parent="WIyWlLk6GJQsqaUBKTNV-1" vertex="1">
          <mxGeometry x="1890" y="467.5" width="90" height="55" as="geometry" />
        </mxCell>
        <mxCell id="GtnpbiUyTME8SAcriD9--76" value="" style="edgeStyle=orthogonalEdgeStyle;rounded=0;orthogonalLoop=1;jettySize=auto;html=1;" parent="WIyWlLk6GJQsqaUBKTNV-1" source="GtnpbiUyTME8SAcriD9--72" target="GtnpbiUyTME8SAcriD9--71" edge="1">
          <mxGeometry relative="1" as="geometry" />
        </mxCell>
        <mxCell id="GtnpbiUyTME8SAcriD9--72" value="Swap buffers to display the rendered image" style="rounded=0;whiteSpace=wrap;html=1;fillColor=#fff2cc;strokeColor=#d6b656;" parent="WIyWlLk6GJQsqaUBKTNV-1" vertex="1">
          <mxGeometry x="1740" y="465" width="110" height="60" as="geometry" />
        </mxCell>
        <mxCell id="GtnpbiUyTME8SAcriD9--80" value="" style="edgeStyle=orthogonalEdgeStyle;rounded=0;orthogonalLoop=1;jettySize=auto;html=1;" parent="WIyWlLk6GJQsqaUBKTNV-1" source="GtnpbiUyTME8SAcriD9--77" target="GtnpbiUyTME8SAcriD9--79" edge="1">
          <mxGeometry relative="1" as="geometry" />
        </mxCell>
        <mxCell id="GtnpbiUyTME8SAcriD9--77" value="Read key, x, &lt;br&gt;and y" style="shape=parallelogram;perimeter=parallelogramPerimeter;whiteSpace=wrap;html=1;fixedSize=1;fillColor=#f8cecc;strokeColor=#b85450;" parent="WIyWlLk6GJQsqaUBKTNV-1" vertex="1">
          <mxGeometry x="600" y="678.75" width="115" height="50" as="geometry" />
        </mxCell>
        <mxCell id="DvEdpbcLVtmOdHuHlk22-2" style="edgeStyle=orthogonalEdgeStyle;rounded=0;orthogonalLoop=1;jettySize=auto;html=1;entryX=0;entryY=0.5;entryDx=0;entryDy=0;" parent="WIyWlLk6GJQsqaUBKTNV-1" source="GtnpbiUyTME8SAcriD9--79" target="GtnpbiUyTME8SAcriD9--81" edge="1">
          <mxGeometry relative="1" as="geometry" />
        </mxCell>
        <mxCell id="GtnpbiUyTME8SAcriD9--79" value="Switch conditional expression:&lt;br&gt;switch (key)" style="rounded=0;whiteSpace=wrap;html=1;fillColor=#fff2cc;strokeColor=#d6b656;" parent="WIyWlLk6GJQsqaUBKTNV-1" vertex="1">
          <mxGeometry x="750" y="673.75" width="180" height="60" as="geometry" />
        </mxCell>
        <mxCell id="DvEdpbcLVtmOdHuHlk22-1" value="" style="edgeStyle=orthogonalEdgeStyle;rounded=0;orthogonalLoop=1;jettySize=auto;html=1;" parent="WIyWlLk6GJQsqaUBKTNV-1" source="GtnpbiUyTME8SAcriD9--81" target="DvEdpbcLVtmOdHuHlk22-0" edge="1">
          <mxGeometry relative="1" as="geometry" />
        </mxCell>
        <mxCell id="DvEdpbcLVtmOdHuHlk22-5" value="" style="edgeStyle=orthogonalEdgeStyle;rounded=0;orthogonalLoop=1;jettySize=auto;html=1;" parent="WIyWlLk6GJQsqaUBKTNV-1" source="GtnpbiUyTME8SAcriD9--81" target="DvEdpbcLVtmOdHuHlk22-4" edge="1">
          <mxGeometry relative="1" as="geometry" />
        </mxCell>
        <mxCell id="GtnpbiUyTME8SAcriD9--81" value="key == &#39;q&#39;?" style="rhombus;whiteSpace=wrap;html=1;fillColor=#dae8fc;strokeColor=#6c8ebf;" parent="WIyWlLk6GJQsqaUBKTNV-1" vertex="1">
          <mxGeometry x="990" y="630" width="110" height="47.5" as="geometry" />
        </mxCell>
        <mxCell id="DvEdpbcLVtmOdHuHlk22-8" value="" style="edgeStyle=orthogonalEdgeStyle;rounded=0;orthogonalLoop=1;jettySize=auto;html=1;" parent="WIyWlLk6GJQsqaUBKTNV-1" source="DvEdpbcLVtmOdHuHlk22-0" target="DvEdpbcLVtmOdHuHlk22-3" edge="1">
          <mxGeometry relative="1" as="geometry" />
        </mxCell>
        <mxCell id="DvEdpbcLVtmOdHuHlk22-14" value="" style="edgeStyle=orthogonalEdgeStyle;rounded=0;orthogonalLoop=1;jettySize=auto;html=1;" parent="WIyWlLk6GJQsqaUBKTNV-1" source="DvEdpbcLVtmOdHuHlk22-0" target="DvEdpbcLVtmOdHuHlk22-13" edge="1">
          <mxGeometry relative="1" as="geometry" />
        </mxCell>
        <mxCell id="DvEdpbcLVtmOdHuHlk22-0" value="key == &#39;r&#39;?" style="rhombus;whiteSpace=wrap;html=1;fillColor=#dae8fc;strokeColor=#6c8ebf;" parent="WIyWlLk6GJQsqaUBKTNV-1" vertex="1">
          <mxGeometry x="990" y="730" width="110" height="47.5" as="geometry" />
        </mxCell>
        <mxCell id="DvEdpbcLVtmOdHuHlk22-11" value="" style="edgeStyle=orthogonalEdgeStyle;rounded=0;orthogonalLoop=1;jettySize=auto;html=1;" parent="WIyWlLk6GJQsqaUBKTNV-1" source="DvEdpbcLVtmOdHuHlk22-3" target="DvEdpbcLVtmOdHuHlk22-10" edge="1">
          <mxGeometry relative="1" as="geometry" />
        </mxCell>
        <mxCell id="DvEdpbcLVtmOdHuHlk22-17" value="" style="edgeStyle=orthogonalEdgeStyle;rounded=0;orthogonalLoop=1;jettySize=auto;html=1;" parent="WIyWlLk6GJQsqaUBKTNV-1" source="DvEdpbcLVtmOdHuHlk22-3" target="DvEdpbcLVtmOdHuHlk22-16" edge="1">
          <mxGeometry relative="1" as="geometry" />
        </mxCell>
        <mxCell id="DvEdpbcLVtmOdHuHlk22-3" value="key == &#39;t&#39;?" style="rhombus;whiteSpace=wrap;html=1;fillColor=#dae8fc;strokeColor=#6c8ebf;" parent="WIyWlLk6GJQsqaUBKTNV-1" vertex="1">
          <mxGeometry x="990" y="830" width="110" height="47.5" as="geometry" />
        </mxCell>
        <mxCell id="DvEdpbcLVtmOdHuHlk22-69" style="edgeStyle=orthogonalEdgeStyle;rounded=0;orthogonalLoop=1;jettySize=auto;html=1;entryX=0;entryY=0.5;entryDx=0;entryDy=0;" parent="WIyWlLk6GJQsqaUBKTNV-1" source="DvEdpbcLVtmOdHuHlk22-4" target="DvEdpbcLVtmOdHuHlk22-68" edge="1">
          <mxGeometry relative="1" as="geometry" />
        </mxCell>
        <mxCell id="DvEdpbcLVtmOdHuHlk22-4" value="Exit the program" style="rounded=0;whiteSpace=wrap;html=1;fillColor=#fff2cc;strokeColor=#d6b656;" parent="WIyWlLk6GJQsqaUBKTNV-1" vertex="1">
          <mxGeometry x="1160" y="628.75" width="110" height="50" as="geometry" />
        </mxCell>
        <mxCell id="DvEdpbcLVtmOdHuHlk22-6" value="False" style="text;strokeColor=none;align=center;fillColor=none;html=1;verticalAlign=middle;whiteSpace=wrap;rounded=0;rotation=-90;" parent="WIyWlLk6GJQsqaUBKTNV-1" vertex="1">
          <mxGeometry x="1005" y="690" width="60" height="20" as="geometry" />
        </mxCell>
        <mxCell id="DvEdpbcLVtmOdHuHlk22-7" value="True" style="text;strokeColor=none;align=center;fillColor=none;html=1;verticalAlign=middle;whiteSpace=wrap;rounded=0;rotation=0;" parent="WIyWlLk6GJQsqaUBKTNV-1" vertex="1">
          <mxGeometry x="1100" y="630" width="50" height="20" as="geometry" />
        </mxCell>
        <mxCell id="DvEdpbcLVtmOdHuHlk22-9" value="False" style="text;strokeColor=none;align=center;fillColor=none;html=1;verticalAlign=middle;whiteSpace=wrap;rounded=0;rotation=-90;" parent="WIyWlLk6GJQsqaUBKTNV-1" vertex="1">
          <mxGeometry x="1005" y="790" width="60" height="20" as="geometry" />
        </mxCell>
        <mxCell id="DvEdpbcLVtmOdHuHlk22-20" value="" style="edgeStyle=orthogonalEdgeStyle;rounded=0;orthogonalLoop=1;jettySize=auto;html=1;" parent="WIyWlLk6GJQsqaUBKTNV-1" source="DvEdpbcLVtmOdHuHlk22-10" target="DvEdpbcLVtmOdHuHlk22-19" edge="1">
          <mxGeometry relative="1" as="geometry" />
        </mxCell>
        <mxCell id="DvEdpbcLVtmOdHuHlk22-22" value="" style="edgeStyle=orthogonalEdgeStyle;rounded=0;orthogonalLoop=1;jettySize=auto;html=1;" parent="WIyWlLk6GJQsqaUBKTNV-1" source="DvEdpbcLVtmOdHuHlk22-10" target="DvEdpbcLVtmOdHuHlk22-21" edge="1">
          <mxGeometry relative="1" as="geometry" />
        </mxCell>
        <mxCell id="DvEdpbcLVtmOdHuHlk22-10" value="key == &#39;z&#39;?" style="rhombus;whiteSpace=wrap;html=1;fillColor=#dae8fc;strokeColor=#6c8ebf;" parent="WIyWlLk6GJQsqaUBKTNV-1" vertex="1">
          <mxGeometry x="990" y="930" width="110" height="47.5" as="geometry" />
        </mxCell>
        <mxCell id="DvEdpbcLVtmOdHuHlk22-12" value="False" style="text;strokeColor=none;align=center;fillColor=none;html=1;verticalAlign=middle;whiteSpace=wrap;rounded=0;rotation=-90;" parent="WIyWlLk6GJQsqaUBKTNV-1" vertex="1">
          <mxGeometry x="1005" y="890" width="60" height="20" as="geometry" />
        </mxCell>
        <mxCell id="DvEdpbcLVtmOdHuHlk22-70" style="edgeStyle=orthogonalEdgeStyle;rounded=0;orthogonalLoop=1;jettySize=auto;html=1;entryX=0;entryY=0.5;entryDx=0;entryDy=0;" parent="WIyWlLk6GJQsqaUBKTNV-1" source="DvEdpbcLVtmOdHuHlk22-13" target="DvEdpbcLVtmOdHuHlk22-68" edge="1">
          <mxGeometry relative="1" as="geometry" />
        </mxCell>
        <mxCell id="DvEdpbcLVtmOdHuHlk22-13" value="Turn on scene rotation" style="rounded=0;whiteSpace=wrap;html=1;fillColor=#fff2cc;strokeColor=#d6b656;" parent="WIyWlLk6GJQsqaUBKTNV-1" vertex="1">
          <mxGeometry x="1160" y="728.75" width="110" height="50" as="geometry" />
        </mxCell>
        <mxCell id="DvEdpbcLVtmOdHuHlk22-15" value="True" style="text;strokeColor=none;align=center;fillColor=none;html=1;verticalAlign=middle;whiteSpace=wrap;rounded=0;rotation=0;" parent="WIyWlLk6GJQsqaUBKTNV-1" vertex="1">
          <mxGeometry x="1100" y="730" width="50" height="20" as="geometry" />
        </mxCell>
        <mxCell id="DvEdpbcLVtmOdHuHlk22-71" style="edgeStyle=orthogonalEdgeStyle;rounded=0;orthogonalLoop=1;jettySize=auto;html=1;entryX=0;entryY=0.5;entryDx=0;entryDy=0;" parent="WIyWlLk6GJQsqaUBKTNV-1" source="DvEdpbcLVtmOdHuHlk22-16" target="DvEdpbcLVtmOdHuHlk22-68" edge="1">
          <mxGeometry relative="1" as="geometry" />
        </mxCell>
        <mxCell id="DvEdpbcLVtmOdHuHlk22-16" value="Turn off scene rotation" style="rounded=0;whiteSpace=wrap;html=1;fillColor=#fff2cc;strokeColor=#d6b656;" parent="WIyWlLk6GJQsqaUBKTNV-1" vertex="1">
          <mxGeometry x="1160" y="828.75" width="110" height="50" as="geometry" />
        </mxCell>
        <mxCell id="DvEdpbcLVtmOdHuHlk22-18" value="True" style="text;strokeColor=none;align=center;fillColor=none;html=1;verticalAlign=middle;whiteSpace=wrap;rounded=0;rotation=0;" parent="WIyWlLk6GJQsqaUBKTNV-1" vertex="1">
          <mxGeometry x="1100" y="830" width="50" height="20" as="geometry" />
        </mxCell>
        <mxCell id="DvEdpbcLVtmOdHuHlk22-72" style="edgeStyle=orthogonalEdgeStyle;rounded=0;orthogonalLoop=1;jettySize=auto;html=1;entryX=0;entryY=0.5;entryDx=0;entryDy=0;" parent="WIyWlLk6GJQsqaUBKTNV-1" source="DvEdpbcLVtmOdHuHlk22-19" target="DvEdpbcLVtmOdHuHlk22-68" edge="1">
          <mxGeometry relative="1" as="geometry" />
        </mxCell>
        <mxCell id="DvEdpbcLVtmOdHuHlk22-19" value="Zoom in" style="rounded=0;whiteSpace=wrap;html=1;fillColor=#fff2cc;strokeColor=#d6b656;" parent="WIyWlLk6GJQsqaUBKTNV-1" vertex="1">
          <mxGeometry x="1160" y="928.75" width="110" height="50" as="geometry" />
        </mxCell>
        <mxCell id="DvEdpbcLVtmOdHuHlk22-25" value="" style="edgeStyle=orthogonalEdgeStyle;rounded=0;orthogonalLoop=1;jettySize=auto;html=1;" parent="WIyWlLk6GJQsqaUBKTNV-1" source="DvEdpbcLVtmOdHuHlk22-21" target="DvEdpbcLVtmOdHuHlk22-24" edge="1">
          <mxGeometry relative="1" as="geometry" />
        </mxCell>
        <mxCell id="DvEdpbcLVtmOdHuHlk22-31" value="" style="edgeStyle=orthogonalEdgeStyle;rounded=0;orthogonalLoop=1;jettySize=auto;html=1;" parent="WIyWlLk6GJQsqaUBKTNV-1" source="DvEdpbcLVtmOdHuHlk22-21" target="DvEdpbcLVtmOdHuHlk22-28" edge="1">
          <mxGeometry relative="1" as="geometry" />
        </mxCell>
        <mxCell id="DvEdpbcLVtmOdHuHlk22-21" value="key == &#39;Z&#39;?" style="rhombus;whiteSpace=wrap;html=1;fillColor=#dae8fc;strokeColor=#6c8ebf;" parent="WIyWlLk6GJQsqaUBKTNV-1" vertex="1">
          <mxGeometry x="990" y="1020" width="110" height="47.5" as="geometry" />
        </mxCell>
        <mxCell id="DvEdpbcLVtmOdHuHlk22-23" value="False" style="text;strokeColor=none;align=center;fillColor=none;html=1;verticalAlign=middle;whiteSpace=wrap;rounded=0;rotation=-90;" parent="WIyWlLk6GJQsqaUBKTNV-1" vertex="1">
          <mxGeometry x="1005" y="990" width="60" height="20" as="geometry" />
        </mxCell>
        <mxCell id="DvEdpbcLVtmOdHuHlk22-79" style="edgeStyle=orthogonalEdgeStyle;rounded=0;orthogonalLoop=1;jettySize=auto;html=1;entryX=0;entryY=0.5;entryDx=0;entryDy=0;" parent="WIyWlLk6GJQsqaUBKTNV-1" source="DvEdpbcLVtmOdHuHlk22-24" target="DvEdpbcLVtmOdHuHlk22-68" edge="1">
          <mxGeometry relative="1" as="geometry" />
        </mxCell>
        <mxCell id="DvEdpbcLVtmOdHuHlk22-24" value="Zoom out" style="rounded=0;whiteSpace=wrap;html=1;fillColor=#fff2cc;strokeColor=#d6b656;" parent="WIyWlLk6GJQsqaUBKTNV-1" vertex="1">
          <mxGeometry x="1160" y="1018.75" width="110" height="50" as="geometry" />
        </mxCell>
        <mxCell id="DvEdpbcLVtmOdHuHlk22-26" value="True" style="text;strokeColor=none;align=center;fillColor=none;html=1;verticalAlign=middle;whiteSpace=wrap;rounded=0;rotation=0;" parent="WIyWlLk6GJQsqaUBKTNV-1" vertex="1">
          <mxGeometry x="1100" y="930" width="50" height="20" as="geometry" />
        </mxCell>
        <mxCell id="DvEdpbcLVtmOdHuHlk22-27" value="True" style="text;strokeColor=none;align=center;fillColor=none;html=1;verticalAlign=middle;whiteSpace=wrap;rounded=0;rotation=0;" parent="WIyWlLk6GJQsqaUBKTNV-1" vertex="1">
          <mxGeometry x="1100" y="1020" width="50" height="20" as="geometry" />
        </mxCell>
        <mxCell id="DvEdpbcLVtmOdHuHlk22-34" value="" style="edgeStyle=orthogonalEdgeStyle;rounded=0;orthogonalLoop=1;jettySize=auto;html=1;" parent="WIyWlLk6GJQsqaUBKTNV-1" source="DvEdpbcLVtmOdHuHlk22-28" target="DvEdpbcLVtmOdHuHlk22-33" edge="1">
          <mxGeometry relative="1" as="geometry" />
        </mxCell>
        <mxCell id="DvEdpbcLVtmOdHuHlk22-38" value="" style="edgeStyle=orthogonalEdgeStyle;rounded=0;orthogonalLoop=1;jettySize=auto;html=1;" parent="WIyWlLk6GJQsqaUBKTNV-1" source="DvEdpbcLVtmOdHuHlk22-28" target="DvEdpbcLVtmOdHuHlk22-36" edge="1">
          <mxGeometry relative="1" as="geometry" />
        </mxCell>
        <mxCell id="DvEdpbcLVtmOdHuHlk22-28" value="key == &#39;w&#39;?" style="rhombus;whiteSpace=wrap;html=1;fillColor=#dae8fc;strokeColor=#6c8ebf;" parent="WIyWlLk6GJQsqaUBKTNV-1" vertex="1">
          <mxGeometry x="990" y="1120" width="110" height="47.5" as="geometry" />
        </mxCell>
        <mxCell id="DvEdpbcLVtmOdHuHlk22-32" value="False" style="text;strokeColor=none;align=center;fillColor=none;html=1;verticalAlign=middle;whiteSpace=wrap;rounded=0;rotation=-90;" parent="WIyWlLk6GJQsqaUBKTNV-1" vertex="1">
          <mxGeometry x="1005" y="1080" width="60" height="20" as="geometry" />
        </mxCell>
        <mxCell id="DvEdpbcLVtmOdHuHlk22-78" style="edgeStyle=orthogonalEdgeStyle;rounded=0;orthogonalLoop=1;jettySize=auto;html=1;entryX=0;entryY=0.5;entryDx=0;entryDy=0;" parent="WIyWlLk6GJQsqaUBKTNV-1" source="DvEdpbcLVtmOdHuHlk22-33" target="DvEdpbcLVtmOdHuHlk22-68" edge="1">
          <mxGeometry relative="1" as="geometry" />
        </mxCell>
        <mxCell id="DvEdpbcLVtmOdHuHlk22-33" value="Move the &lt;br&gt;bird up" style="rounded=0;whiteSpace=wrap;html=1;fillColor=#fff2cc;strokeColor=#d6b656;" parent="WIyWlLk6GJQsqaUBKTNV-1" vertex="1">
          <mxGeometry x="1160" y="1118.75" width="110" height="50" as="geometry" />
        </mxCell>
        <mxCell id="DvEdpbcLVtmOdHuHlk22-35" value="True" style="text;strokeColor=none;align=center;fillColor=none;html=1;verticalAlign=middle;whiteSpace=wrap;rounded=0;rotation=0;" parent="WIyWlLk6GJQsqaUBKTNV-1" vertex="1">
          <mxGeometry x="1100" y="1120" width="50" height="20" as="geometry" />
        </mxCell>
        <mxCell id="DvEdpbcLVtmOdHuHlk22-40" value="" style="edgeStyle=orthogonalEdgeStyle;rounded=0;orthogonalLoop=1;jettySize=auto;html=1;" parent="WIyWlLk6GJQsqaUBKTNV-1" source="DvEdpbcLVtmOdHuHlk22-36" target="DvEdpbcLVtmOdHuHlk22-37" edge="1">
          <mxGeometry relative="1" as="geometry" />
        </mxCell>
        <mxCell id="DvEdpbcLVtmOdHuHlk22-43" value="" style="edgeStyle=orthogonalEdgeStyle;rounded=0;orthogonalLoop=1;jettySize=auto;html=1;" parent="WIyWlLk6GJQsqaUBKTNV-1" source="DvEdpbcLVtmOdHuHlk22-36" target="DvEdpbcLVtmOdHuHlk22-42" edge="1">
          <mxGeometry relative="1" as="geometry" />
        </mxCell>
        <mxCell id="DvEdpbcLVtmOdHuHlk22-36" value="key == &#39;s&#39;?" style="rhombus;whiteSpace=wrap;html=1;fillColor=#dae8fc;strokeColor=#6c8ebf;" parent="WIyWlLk6GJQsqaUBKTNV-1" vertex="1">
          <mxGeometry x="990" y="1217" width="110" height="47.5" as="geometry" />
        </mxCell>
        <mxCell id="DvEdpbcLVtmOdHuHlk22-76" style="edgeStyle=orthogonalEdgeStyle;rounded=0;orthogonalLoop=1;jettySize=auto;html=1;entryX=0;entryY=0.5;entryDx=0;entryDy=0;" parent="WIyWlLk6GJQsqaUBKTNV-1" source="DvEdpbcLVtmOdHuHlk22-37" target="DvEdpbcLVtmOdHuHlk22-68" edge="1">
          <mxGeometry relative="1" as="geometry" />
        </mxCell>
        <mxCell id="DvEdpbcLVtmOdHuHlk22-37" value="Move the &lt;br&gt;bird down" style="rounded=0;whiteSpace=wrap;html=1;fillColor=#fff2cc;strokeColor=#d6b656;" parent="WIyWlLk6GJQsqaUBKTNV-1" vertex="1">
          <mxGeometry x="1160" y="1215.75" width="110" height="50" as="geometry" />
        </mxCell>
        <mxCell id="DvEdpbcLVtmOdHuHlk22-39" value="False" style="text;strokeColor=none;align=center;fillColor=none;html=1;verticalAlign=middle;whiteSpace=wrap;rounded=0;rotation=-90;" parent="WIyWlLk6GJQsqaUBKTNV-1" vertex="1">
          <mxGeometry x="1005" y="1180" width="60" height="20" as="geometry" />
        </mxCell>
        <mxCell id="DvEdpbcLVtmOdHuHlk22-41" value="True" style="text;strokeColor=none;align=center;fillColor=none;html=1;verticalAlign=middle;whiteSpace=wrap;rounded=0;rotation=0;" parent="WIyWlLk6GJQsqaUBKTNV-1" vertex="1">
          <mxGeometry x="1100" y="1217" width="50" height="20" as="geometry" />
        </mxCell>
        <mxCell id="DvEdpbcLVtmOdHuHlk22-48" value="" style="edgeStyle=orthogonalEdgeStyle;rounded=0;orthogonalLoop=1;jettySize=auto;html=1;" parent="WIyWlLk6GJQsqaUBKTNV-1" source="DvEdpbcLVtmOdHuHlk22-42" target="DvEdpbcLVtmOdHuHlk22-47" edge="1">
          <mxGeometry relative="1" as="geometry" />
        </mxCell>
        <mxCell id="DvEdpbcLVtmOdHuHlk22-50" value="" style="edgeStyle=orthogonalEdgeStyle;rounded=0;orthogonalLoop=1;jettySize=auto;html=1;" parent="WIyWlLk6GJQsqaUBKTNV-1" source="DvEdpbcLVtmOdHuHlk22-42" target="DvEdpbcLVtmOdHuHlk22-49" edge="1">
          <mxGeometry relative="1" as="geometry" />
        </mxCell>
        <mxCell id="DvEdpbcLVtmOdHuHlk22-42" value="key == &#39;a&#39;?" style="rhombus;whiteSpace=wrap;html=1;fillColor=#dae8fc;strokeColor=#6c8ebf;" parent="WIyWlLk6GJQsqaUBKTNV-1" vertex="1">
          <mxGeometry x="990" y="1320" width="110" height="47.5" as="geometry" />
        </mxCell>
        <mxCell id="DvEdpbcLVtmOdHuHlk22-46" value="False" style="text;strokeColor=none;align=center;fillColor=none;html=1;verticalAlign=middle;whiteSpace=wrap;rounded=0;rotation=-90;" parent="WIyWlLk6GJQsqaUBKTNV-1" vertex="1">
          <mxGeometry x="1005" y="1280" width="60" height="20" as="geometry" />
        </mxCell>
        <mxCell id="DvEdpbcLVtmOdHuHlk22-77" style="edgeStyle=orthogonalEdgeStyle;rounded=0;orthogonalLoop=1;jettySize=auto;html=1;entryX=0;entryY=0.5;entryDx=0;entryDy=0;" parent="WIyWlLk6GJQsqaUBKTNV-1" source="DvEdpbcLVtmOdHuHlk22-47" target="DvEdpbcLVtmOdHuHlk22-68" edge="1">
          <mxGeometry relative="1" as="geometry" />
        </mxCell>
        <mxCell id="DvEdpbcLVtmOdHuHlk22-47" value="Move the &lt;br&gt;bird left" style="rounded=0;whiteSpace=wrap;html=1;fillColor=#fff2cc;strokeColor=#d6b656;" parent="WIyWlLk6GJQsqaUBKTNV-1" vertex="1">
          <mxGeometry x="1160" y="1318.75" width="110" height="50" as="geometry" />
        </mxCell>
        <mxCell id="DvEdpbcLVtmOdHuHlk22-53" value="" style="edgeStyle=orthogonalEdgeStyle;rounded=0;orthogonalLoop=1;jettySize=auto;html=1;" parent="WIyWlLk6GJQsqaUBKTNV-1" source="DvEdpbcLVtmOdHuHlk22-49" target="DvEdpbcLVtmOdHuHlk22-52" edge="1">
          <mxGeometry relative="1" as="geometry" />
        </mxCell>
        <mxCell id="DvEdpbcLVtmOdHuHlk22-57" value="" style="edgeStyle=orthogonalEdgeStyle;rounded=0;orthogonalLoop=1;jettySize=auto;html=1;" parent="WIyWlLk6GJQsqaUBKTNV-1" source="DvEdpbcLVtmOdHuHlk22-49" target="DvEdpbcLVtmOdHuHlk22-56" edge="1">
          <mxGeometry relative="1" as="geometry" />
        </mxCell>
        <mxCell id="DvEdpbcLVtmOdHuHlk22-49" value="key == &#39;d&#39;?" style="rhombus;whiteSpace=wrap;html=1;fillColor=#dae8fc;strokeColor=#6c8ebf;" parent="WIyWlLk6GJQsqaUBKTNV-1" vertex="1">
          <mxGeometry x="990" y="1420" width="110" height="47.5" as="geometry" />
        </mxCell>
        <mxCell id="DvEdpbcLVtmOdHuHlk22-51" value="False" style="text;strokeColor=none;align=center;fillColor=none;html=1;verticalAlign=middle;whiteSpace=wrap;rounded=0;rotation=-90;" parent="WIyWlLk6GJQsqaUBKTNV-1" vertex="1">
          <mxGeometry x="1005" y="1380" width="60" height="20" as="geometry" />
        </mxCell>
        <mxCell id="DvEdpbcLVtmOdHuHlk22-75" style="edgeStyle=orthogonalEdgeStyle;rounded=0;orthogonalLoop=1;jettySize=auto;html=1;entryX=0;entryY=0.5;entryDx=0;entryDy=0;" parent="WIyWlLk6GJQsqaUBKTNV-1" source="DvEdpbcLVtmOdHuHlk22-52" target="DvEdpbcLVtmOdHuHlk22-68" edge="1">
          <mxGeometry relative="1" as="geometry" />
        </mxCell>
        <mxCell id="DvEdpbcLVtmOdHuHlk22-52" value="Move the &lt;br&gt;bird right" style="rounded=0;whiteSpace=wrap;html=1;fillColor=#fff2cc;strokeColor=#d6b656;" parent="WIyWlLk6GJQsqaUBKTNV-1" vertex="1">
          <mxGeometry x="1160" y="1418.75" width="110" height="50" as="geometry" />
        </mxCell>
        <mxCell id="DvEdpbcLVtmOdHuHlk22-54" value="True" style="text;strokeColor=none;align=center;fillColor=none;html=1;verticalAlign=middle;whiteSpace=wrap;rounded=0;rotation=0;" parent="WIyWlLk6GJQsqaUBKTNV-1" vertex="1">
          <mxGeometry x="1100" y="1318.75" width="50" height="20" as="geometry" />
        </mxCell>
        <mxCell id="DvEdpbcLVtmOdHuHlk22-55" value="True" style="text;strokeColor=none;align=center;fillColor=none;html=1;verticalAlign=middle;whiteSpace=wrap;rounded=0;rotation=0;" parent="WIyWlLk6GJQsqaUBKTNV-1" vertex="1">
          <mxGeometry x="1100" y="1420" width="50" height="20" as="geometry" />
        </mxCell>
        <mxCell id="DvEdpbcLVtmOdHuHlk22-61" value="" style="edgeStyle=orthogonalEdgeStyle;rounded=0;orthogonalLoop=1;jettySize=auto;html=1;" parent="WIyWlLk6GJQsqaUBKTNV-1" source="DvEdpbcLVtmOdHuHlk22-56" target="DvEdpbcLVtmOdHuHlk22-60" edge="1">
          <mxGeometry relative="1" as="geometry" />
        </mxCell>
        <mxCell id="DvEdpbcLVtmOdHuHlk22-65" value="" style="edgeStyle=orthogonalEdgeStyle;rounded=0;orthogonalLoop=1;jettySize=auto;html=1;" parent="WIyWlLk6GJQsqaUBKTNV-1" source="DvEdpbcLVtmOdHuHlk22-56" target="DvEdpbcLVtmOdHuHlk22-62" edge="1">
          <mxGeometry relative="1" as="geometry" />
        </mxCell>
        <mxCell id="DvEdpbcLVtmOdHuHlk22-56" value="key == &#39;g&#39;?" style="rhombus;whiteSpace=wrap;html=1;fillColor=#dae8fc;strokeColor=#6c8ebf;" parent="WIyWlLk6GJQsqaUBKTNV-1" vertex="1">
          <mxGeometry x="990" y="1520" width="110" height="47.5" as="geometry" />
        </mxCell>
        <mxCell id="DvEdpbcLVtmOdHuHlk22-58" value="False" style="text;strokeColor=none;align=center;fillColor=none;html=1;verticalAlign=middle;whiteSpace=wrap;rounded=0;rotation=-90;" parent="WIyWlLk6GJQsqaUBKTNV-1" vertex="1">
          <mxGeometry x="1005" y="1480" width="60" height="20" as="geometry" />
        </mxCell>
        <mxCell id="DvEdpbcLVtmOdHuHlk22-59" value="False" style="text;strokeColor=none;align=center;fillColor=none;html=1;verticalAlign=middle;whiteSpace=wrap;rounded=0;rotation=-90;" parent="WIyWlLk6GJQsqaUBKTNV-1" vertex="1">
          <mxGeometry x="1005" y="1580" width="60" height="20" as="geometry" />
        </mxCell>
        <mxCell id="DvEdpbcLVtmOdHuHlk22-64" value="" style="edgeStyle=orthogonalEdgeStyle;rounded=0;orthogonalLoop=1;jettySize=auto;html=1;" parent="WIyWlLk6GJQsqaUBKTNV-1" source="DvEdpbcLVtmOdHuHlk22-60" target="DvEdpbcLVtmOdHuHlk22-63" edge="1">
          <mxGeometry relative="1" as="geometry" />
        </mxCell>
        <mxCell id="DvEdpbcLVtmOdHuHlk22-60" value="key == &#39;m&#39;?" style="rhombus;whiteSpace=wrap;html=1;fillColor=#dae8fc;strokeColor=#6c8ebf;" parent="WIyWlLk6GJQsqaUBKTNV-1" vertex="1">
          <mxGeometry x="990" y="1620" width="110" height="47.5" as="geometry" />
        </mxCell>
        <mxCell id="DvEdpbcLVtmOdHuHlk22-74" style="edgeStyle=orthogonalEdgeStyle;rounded=0;orthogonalLoop=1;jettySize=auto;html=1;entryX=0;entryY=0.5;entryDx=0;entryDy=0;" parent="WIyWlLk6GJQsqaUBKTNV-1" source="DvEdpbcLVtmOdHuHlk22-62" target="DvEdpbcLVtmOdHuHlk22-68" edge="1">
          <mxGeometry relative="1" as="geometry" />
        </mxCell>
        <mxCell id="DvEdpbcLVtmOdHuHlk22-62" value="Switch to the &lt;br&gt;game" style="rounded=0;whiteSpace=wrap;html=1;fillColor=#fff2cc;strokeColor=#d6b656;" parent="WIyWlLk6GJQsqaUBKTNV-1" vertex="1">
          <mxGeometry x="1160" y="1518.75" width="110" height="50" as="geometry" />
        </mxCell>
        <mxCell id="DvEdpbcLVtmOdHuHlk22-73" style="edgeStyle=orthogonalEdgeStyle;rounded=0;orthogonalLoop=1;jettySize=auto;html=1;entryX=0;entryY=0.5;entryDx=0;entryDy=0;" parent="WIyWlLk6GJQsqaUBKTNV-1" source="DvEdpbcLVtmOdHuHlk22-63" target="DvEdpbcLVtmOdHuHlk22-68" edge="1">
          <mxGeometry relative="1" as="geometry" />
        </mxCell>
        <mxCell id="DvEdpbcLVtmOdHuHlk22-63" value="Switch to the &lt;br&gt;start menu" style="rounded=0;whiteSpace=wrap;html=1;fillColor=#fff2cc;strokeColor=#d6b656;" parent="WIyWlLk6GJQsqaUBKTNV-1" vertex="1">
          <mxGeometry x="1160" y="1618.75" width="110" height="50" as="geometry" />
        </mxCell>
        <mxCell id="DvEdpbcLVtmOdHuHlk22-66" value="True" style="text;strokeColor=none;align=center;fillColor=none;html=1;verticalAlign=middle;whiteSpace=wrap;rounded=0;rotation=0;" parent="WIyWlLk6GJQsqaUBKTNV-1" vertex="1">
          <mxGeometry x="1100" y="1520" width="50" height="20" as="geometry" />
        </mxCell>
        <mxCell id="DvEdpbcLVtmOdHuHlk22-67" value="True" style="text;strokeColor=none;align=center;fillColor=none;html=1;verticalAlign=middle;whiteSpace=wrap;rounded=0;rotation=0;" parent="WIyWlLk6GJQsqaUBKTNV-1" vertex="1">
          <mxGeometry x="1100" y="1620" width="50" height="20" as="geometry" />
        </mxCell>
        <mxCell id="DvEdpbcLVtmOdHuHlk22-81" value="" style="edgeStyle=orthogonalEdgeStyle;rounded=0;orthogonalLoop=1;jettySize=auto;html=1;" parent="WIyWlLk6GJQsqaUBKTNV-1" source="DvEdpbcLVtmOdHuHlk22-68" target="DvEdpbcLVtmOdHuHlk22-80" edge="1">
          <mxGeometry relative="1" as="geometry" />
        </mxCell>
        <mxCell id="DvEdpbcLVtmOdHuHlk22-68" value="Update the display:&lt;br&gt;glutPostRedisplay()" style="rounded=0;whiteSpace=wrap;html=1;fillColor=#fff2cc;strokeColor=#d6b656;" parent="WIyWlLk6GJQsqaUBKTNV-1" vertex="1">
          <mxGeometry x="1390" y="1060" width="140" height="60" as="geometry" />
        </mxCell>
        <mxCell id="DvEdpbcLVtmOdHuHlk22-80" value="End" style="rounded=1;whiteSpace=wrap;html=1;fillColor=#e1d5e7;strokeColor=#9673a6;" parent="WIyWlLk6GJQsqaUBKTNV-1" vertex="1">
          <mxGeometry x="1405" y="1168.75" width="110" height="50" as="geometry" />
        </mxCell>
        <mxCell id="DvEdpbcLVtmOdHuHlk22-85" value="" style="edgeStyle=orthogonalEdgeStyle;rounded=0;orthogonalLoop=1;jettySize=auto;html=1;" parent="WIyWlLk6GJQsqaUBKTNV-1" source="DvEdpbcLVtmOdHuHlk22-82" target="DvEdpbcLVtmOdHuHlk22-84" edge="1">
          <mxGeometry relative="1" as="geometry" />
        </mxCell>
        <mxCell id="DvEdpbcLVtmOdHuHlk22-82" value="Call glutPostRedisplay()" style="rounded=0;whiteSpace=wrap;html=1;fillColor=#fff2cc;strokeColor=#d6b656;" parent="WIyWlLk6GJQsqaUBKTNV-1" vertex="1">
          <mxGeometry x="585" y="823.75" width="160" height="60" as="geometry" />
        </mxCell>
        <mxCell id="DvEdpbcLVtmOdHuHlk22-84" value="End" style="rounded=1;whiteSpace=wrap;html=1;fillColor=#e1d5e7;strokeColor=#9673a6;" parent="WIyWlLk6GJQsqaUBKTNV-1" vertex="1">
          <mxGeometry x="785" y="828.75" width="110" height="50" as="geometry" />
        </mxCell>
        <mxCell id="DvEdpbcLVtmOdHuHlk22-90" value="3D Bird Game Code Flow Diagram" style="text;align=center;verticalAlign=middle;resizable=0;points=[];autosize=1;strokeColor=none;fillColor=none;fontSize=50;fontFamily=Helvetica;shadow=0;fontStyle=0;fontColor=#A680B8;labelBackgroundColor=none;labelBorderColor=none;" parent="WIyWlLk6GJQsqaUBKTNV-1" vertex="1">
          <mxGeometry x="650" y="34" width="790" height="72" as="geometry" />
        </mxCell>
        <mxCell id="DvEdpbcLVtmOdHuHlk22-91" value="Megan Chen &amp; Julia Hsing" style="text;align=center;verticalAlign=middle;resizable=0;points=[];autosize=1;strokeColor=none;fillColor=none;fontSize=25;fontFamily=Helvetica;shadow=0;fontStyle=0;fontColor=#7EA6E0;labelBackgroundColor=none;labelBorderColor=none;" parent="WIyWlLk6GJQsqaUBKTNV-1" vertex="1">
          <mxGeometry x="888" y="99" width="314" height="42" as="geometry" />
        </mxCell>
        <mxCell id="DvEdpbcLVtmOdHuHlk22-92" style="edgeStyle=orthogonalEdgeStyle;rounded=0;orthogonalLoop=1;jettySize=auto;html=1;exitX=0.75;exitY=1;exitDx=0;exitDy=0;" parent="WIyWlLk6GJQsqaUBKTNV-1" source="GtnpbiUyTME8SAcriD9--7" target="GtnpbiUyTME8SAcriD9--7" edge="1">
          <mxGeometry relative="1" as="geometry" />
        </mxCell>
      </root>
    </mxGraphModel>
  </diagram>
</mxfile>
